<svg width="27" height="27" viewBox="0 0 27 27" fill="none" xmlns="http://www.w3.org/2000/svg">
<path fill-rule="evenodd" clip-rule="evenodd" d="M17.824 16.7886H18.9761L26.2531 24.0802L24.0802 26.2531L16.7886 18.9761V17.824L16.3948 17.4156C14.7323 18.8448 12.574 19.7052 10.2261 19.7052C4.9907 19.7052 0.746887 15.4615 0.746887 10.2261C0.746887 4.99065 4.9907 0.746887 10.2261 0.746887C15.4615 0.746887 19.7052 4.99065 19.7052 10.2261C19.7052 12.574 18.8448 14.7323 17.4158 16.3948L17.824 16.7886ZM3.66355 10.2261C3.66355 13.8573 6.59482 16.7886 10.2261 16.7886C13.8573 16.7886 16.7886 13.8573 16.7886 10.2261C16.7886 6.59482 13.8573 3.66355 10.2261 3.66355C6.59482 3.66355 3.66355 6.59482 3.66355 10.2261Z" fill="#131C2E"/>
</svg>
