<svg width="541" height="133" viewBox="0 0 541 133" fill="none" xmlns="http://www.w3.org/2000/svg">
<g clip-path="url(#clip0)">
<path d="M33.0882 32.4118L19.9448 45.5552C18.7251 46.7749 18.7251 48.7548 19.9448 49.9746L33.097 63.1268C33.6914 63.7212 34.5013 64.0516 35.3421 64.0416L48.3396 63.8958C49.1892 63.8858 49.9571 63.5378 50.514 62.9809C51.0708 62.4241 51.4199 61.6551 51.4288 60.8066L51.5746 47.8091C51.5846 46.9683 51.2542 46.1584 50.6598 45.564L37.5076 32.4118C36.2879 31.1921 34.308 31.1921 33.0882 32.4118ZM45.3112 49.0542L45.214 57.681L36.5873 57.7782L26.574 47.7649L35.2979 39.041L45.3112 49.0542Z" fill="#FF4655"/>
<path d="M70.7251 66.9595L57.7264 67.1043C56.0272 67.122 54.6549 68.4942 54.6373 70.1934L54.4925 83.1921C54.4826 84.0329 54.8129 84.8427 55.4073 85.4371L68.5584 98.5882C69.7782 99.808 71.7581 99.808 72.9778 98.5882L86.1212 85.4448C87.341 84.2251 87.341 82.2452 86.1212 81.0254L72.9701 67.8744C72.3757 67.2799 71.5658 66.9496 70.7251 66.9595ZM70.7681 91.9591L60.7559 81.9469L60.8521 73.3191L69.4799 73.223L79.4921 83.2351L70.7681 91.9591Z" fill="#FF4655"/>
<path d="M48.3385 67.1032L35.3399 66.9584C34.4991 66.9485 33.6892 67.2788 33.0948 67.8732L19.9437 81.0243C18.724 82.2441 18.724 84.224 19.9437 85.4437L33.0871 98.5871C34.3079 99.808 36.2867 99.8069 37.5065 98.5871L50.6576 85.436C51.252 84.8416 51.5823 84.0317 51.5724 83.1909L51.4288 70.1934C51.41 68.4953 50.0366 67.1219 48.3385 67.1032ZM45.309 81.9458L35.2968 91.958L26.5739 83.2351L36.5861 73.223L45.2139 73.3191L45.309 81.9458Z" fill="#FF4655"/>
<path d="M68.5584 32.4118L55.4073 45.5629C54.8129 46.1573 54.4826 46.9672 54.4925 47.808L54.6373 60.8066C54.656 62.5047 56.0294 63.8781 57.7275 63.8969L70.725 64.0405C71.5658 64.0504 72.3757 63.7201 72.9701 63.1257L86.1212 49.9746C87.3409 48.7548 87.3409 46.7749 86.1212 45.5552L72.9778 32.4118C71.757 31.191 69.7782 31.1921 68.5584 32.4118ZM79.491 47.7638L69.4788 57.776L60.8521 57.681L60.7559 49.0531L70.7681 39.0409L79.491 47.7638Z" fill="#FF4655" stroke="#FF4655"/>
</g>
<g filter="url(#filter0_d)">
<path d="M131.033 100.5C124.833 100.567 120 99.2667 116.533 96.6C113.133 93.9333 110.766 89.8333 109.433 84.3C108.1 78.7 107.433 71.6 107.433 63C107.433 54.6667 108.133 47.7667 109.533 42.3C111 36.7667 113.533 32.6333 117.133 29.9C120.733 27.1667 125.8 25.8 132.333 25.8C136.2 25.8 140.233 26.0333 144.433 26.5C148.7 26.9667 152.566 27.6 156.033 28.4V34.3C154.7 34.1667 152.833 34 150.433 33.8C148.033 33.5333 145.366 33.3333 142.433 33.2C139.5 33 136.533 32.9 133.533 32.9C128.733 32.9 125 33.9333 122.333 36C119.733 38 117.9 41.2 116.833 45.6C115.833 50 115.333 55.8333 115.333 63.1C115.333 70.9 115.833 77 116.833 81.4C117.9 85.7333 119.7 88.8 122.233 90.6C124.833 92.3333 128.5 93.2 133.233 93.2C136.433 93.2 139.666 92.8 142.933 92C146.266 91.2 149.1 90.3333 151.433 89.4V67.7H133.633V61.8C135.566 61.4667 138 61.2333 140.933 61.1C143.933 60.9 147 60.8 150.133 60.8C153.733 60.8 156.7 60.9333 159.033 61.2V100H153.233L152.033 94.8C149.633 96.0667 146.566 97.3333 142.833 98.6C139.166 99.8 135.233 100.433 131.033 100.5ZM184.865 100.6C180.932 100.6 177.698 99.4333 175.165 97.1C172.632 94.7667 171.365 91.4667 171.365 87.2V83.4C171.365 79.2 172.732 75.8 175.465 73.2C178.265 70.6 182.465 69.3 188.065 69.3H206.165V62.7C206.165 60.5 205.798 58.6333 205.065 57.1C204.332 55.5 202.965 54.2667 200.965 53.4C198.965 52.5333 196.098 52.1 192.365 52.1H175.765V47.4C178.098 47 180.798 46.6333 183.865 46.3C186.998 45.9667 190.665 45.8 194.865 45.8C201.398 45.7333 206.232 47 209.365 49.6C212.498 52.2 214.065 56.4333 214.065 62.3V100H207.965L206.465 93.9C206.265 94.1 205.465 94.5667 204.065 95.3C202.665 95.9667 200.898 96.7333 198.765 97.6C196.698 98.4 194.432 99.1 191.965 99.7C189.565 100.3 187.198 100.6 184.865 100.6ZM188.165 94.7C189.632 94.7 191.365 94.5 193.365 94.1C195.432 93.6333 197.398 93.1 199.265 92.5C201.198 91.9 202.798 91.3667 204.065 90.9C205.398 90.3667 206.098 90.1 206.165 90.1V73.3L189.865 74C186.065 74.1333 183.332 75.1 181.665 76.9C180.065 78.6333 179.265 80.8333 179.265 83.5V85.9C179.265 88.1 179.698 89.8333 180.565 91.1C181.498 92.3667 182.632 93.3 183.965 93.9C185.365 94.4333 186.765 94.7 188.165 94.7ZM228.957 100V46.6H235.157L236.857 52.5C239.524 50.7 242.491 49.1333 245.757 47.8C249.091 46.4 252.791 45.7 256.857 45.7C260.191 45.7 263.024 46.4667 265.357 48C267.691 49.4667 269.491 51.3333 270.757 53.6C272.424 52.4 274.424 51.2 276.757 50C279.157 48.8 281.691 47.8 284.357 47C287.091 46.1333 289.724 45.7 292.257 45.7C296.124 45.7 299.291 46.5333 301.757 48.2C304.224 49.8 306.024 52 307.157 54.8C308.357 57.5333 308.957 60.6 308.957 64V100H301.057V64.6C301.057 61.2 300.057 58.4 298.057 56.2C296.057 54 293.291 52.9 289.757 52.9C286.757 52.9 283.691 53.4667 280.557 54.6C277.424 55.7333 274.524 57.1 271.857 58.7C272.524 60.7667 272.857 62.7667 272.857 64.7V100H264.957V64.6C264.957 61.2 263.957 58.4 261.957 56.2C260.024 54 257.324 52.9 253.857 52.9C250.391 52.9 247.391 53.3667 244.857 54.3C242.324 55.2333 239.657 56.5 236.857 58.1V100H228.957ZM344.181 100.6C338.581 100.6 334.148 99.7667 330.881 98.1C327.681 96.4333 325.381 93.6 323.981 89.6C322.581 85.6 321.881 80.1333 321.881 73.2C321.881 66.1333 322.581 60.6333 323.981 56.7C325.448 52.7 327.815 49.9 331.081 48.3C334.348 46.7 338.748 45.9 344.281 45.9C348.948 45.9 352.781 46.4333 355.781 47.5C358.781 48.5667 360.981 50.4 362.381 53C363.848 55.5333 364.581 59.0667 364.581 63.6C364.581 68.3333 363.215 71.6667 360.481 73.6C357.748 75.5333 354.048 76.5 349.381 76.5H329.781C329.781 80.8333 330.215 84.3333 331.081 87C332.015 89.6 333.648 91.5 335.981 92.7C338.315 93.8333 341.681 94.4 346.081 94.4H363.281V99.2C360.215 99.6 357.215 99.9333 354.281 100.2C351.415 100.467 348.048 100.6 344.181 100.6ZM329.681 71.3H348.681C351.681 71.3 353.881 70.7667 355.281 69.7C356.748 68.5667 357.481 66.5667 357.481 63.7C357.481 59.1667 356.481 56.0667 354.481 54.4C352.481 52.7333 349.081 51.9 344.281 51.9C340.481 51.9 337.515 52.4667 335.381 53.6C333.315 54.6667 331.848 56.6333 330.981 59.5C330.115 62.3 329.681 66.2333 329.681 71.3ZM377.883 123.7V46.6H384.283L385.783 52.1C386.983 51.2333 388.516 50.3333 390.383 49.4C392.316 48.4 394.383 47.5667 396.583 46.9C398.85 46.2333 401.083 45.9 403.283 45.9C407.883 45.9 411.583 47.2 414.383 49.8C417.183 52.3333 419.216 55.6667 420.483 59.8C421.75 63.9333 422.383 68.4 422.383 73.2C422.383 82.2 420.85 89.0333 417.783 93.7C414.716 98.3667 409.883 100.7 403.283 100.7C400.35 100.7 397.35 100.233 394.283 99.3C391.216 98.3667 388.383 97.1333 385.783 95.6V123.7H377.883ZM401.083 94C403.616 94 405.883 93.3667 407.883 92.1C409.883 90.8333 411.483 88.7 412.683 85.7C413.883 82.6333 414.483 78.4667 414.483 73.2C414.483 68.2 413.85 64.2 412.583 61.2C411.316 58.1333 409.65 55.9333 407.583 54.6C405.583 53.2 403.416 52.5 401.083 52.5C398.016 52.5 395.183 53 392.583 54C390.05 54.9333 387.783 55.9333 385.783 57V89.7C388.116 90.9667 390.583 92 393.183 92.8C395.85 93.6 398.483 94 401.083 94ZM446.096 100.6C442.162 100.6 438.929 99.4333 436.396 97.1C433.862 94.7667 432.596 91.4667 432.596 87.2V83.4C432.596 79.2 433.962 75.8 436.696 73.2C439.496 70.6 443.696 69.3 449.296 69.3H467.396V62.7C467.396 60.5 467.029 58.6333 466.296 57.1C465.562 55.5 464.196 54.2667 462.196 53.4C460.196 52.5333 457.329 52.1 453.596 52.1H436.996V47.4C439.329 47 442.029 46.6333 445.096 46.3C448.229 45.9667 451.896 45.8 456.096 45.8C462.629 45.7333 467.462 47 470.596 49.6C473.729 52.2 475.296 56.4333 475.296 62.3V100H469.196L467.696 93.9C467.496 94.1 466.696 94.5667 465.296 95.3C463.896 95.9667 462.129 96.7333 459.996 97.6C457.929 98.4 455.662 99.1 453.196 99.7C450.796 100.3 448.429 100.6 446.096 100.6ZM449.396 94.7C450.862 94.7 452.596 94.5 454.596 94.1C456.662 93.6333 458.629 93.1 460.496 92.5C462.429 91.9 464.029 91.3667 465.296 90.9C466.629 90.3667 467.329 90.1 467.396 90.1V73.3L451.096 74C447.296 74.1333 444.562 75.1 442.896 76.9C441.296 78.6333 440.496 80.8333 440.496 83.5V85.9C440.496 88.1 440.929 89.8333 441.796 91.1C442.729 92.3667 443.862 93.3 445.196 93.9C446.596 94.4333 447.996 94.7 449.396 94.7ZM507.488 100.6C500.888 100.6 496.021 98.4333 492.888 94.1C489.821 89.7667 488.288 82.9667 488.288 73.7C488.288 67.1 488.954 61.7667 490.288 57.7C491.621 53.6333 493.754 50.6667 496.688 48.8C499.621 46.8667 503.554 45.9 508.488 45.9C511.488 45.9 514.421 46.2333 517.288 46.9C520.154 47.5667 522.688 48.3 524.888 49.1V23.7H532.788V100H526.388L524.888 94.6C523.888 95.4667 522.388 96.3667 520.388 97.3C518.454 98.2333 516.321 99.0333 513.988 99.7C511.721 100.3 509.554 100.6 507.488 100.6ZM509.788 94.1C512.854 94.1 515.621 93.6333 518.088 92.7C520.621 91.7 522.888 90.6667 524.888 89.6V54.7C522.488 54.0333 520.188 53.4333 517.988 52.9C515.854 52.3667 513.388 52.1 510.588 52.1C507.188 52.1 504.421 52.7333 502.288 54C500.154 55.2667 498.588 57.4667 497.588 60.6C496.654 63.6667 496.188 67.9333 496.188 73.4C496.188 80.8667 497.221 86.2 499.288 89.4C501.421 92.5333 504.921 94.1 509.788 94.1Z" fill="white"/>
</g>
<defs>
<filter id="filter0_d" x="107.433" y="23.7" width="433.355" height="108" filterUnits="userSpaceOnUse" color-interpolation-filters="sRGB">
<feFlood flood-opacity="0" result="BackgroundImageFix"/>
<feColorMatrix in="SourceAlpha" type="matrix" values="0 0 0 0 0 0 0 0 0 0 0 0 0 0 0 0 0 0 127 0" result="hardAlpha"/>
<feOffset dx="4" dy="4"/>
<feGaussianBlur stdDeviation="2"/>
<feColorMatrix type="matrix" values="0 0 0 0 1 0 0 0 0 1 0 0 0 0 1 0 0 0 0.25 0"/>
<feBlend mode="normal" in2="BackgroundImageFix" result="effect1_dropShadow"/>
<feBlend mode="normal" in="SourceGraphic" in2="effect1_dropShadow" result="shape"/>
</filter>
<clipPath id="clip0">
<rect width="75" height="75" fill="white" transform="translate(0 65.5) rotate(-45)"/>
</clipPath>
</defs>
</svg>
